<?xml version="1.0" encoding="UTF-8"?>
<svg xmlns="http://www.w3.org/2000/svg" style="display:none">

  <!-- DASHBOARD -->
  <symbol id="icon-dashboard" viewBox="0 0 24 24">
    <path d="M4 16a8 8 0 1 1 16 0" fill="none" stroke="currentColor" stroke-width="2"/>
    <path d="M12 12l3-2" stroke="currentColor" stroke-width="2" stroke-linecap="round"/>
    <circle cx="12" cy="16" r="1.5" fill="currentColor"/>
  </symbol>

  <!-- MY VEHICLES -->
  <symbol id="icon-vehicles" viewBox="0 0 24 24">
    <path d="M3 14l2-4h14l2 4v3H3v-3z" fill="none" stroke="currentColor" stroke-width="2"/>
    <circle cx="7" cy="17" r="1.5" fill="currentColor"/>
    <circle cx="17" cy="17" r="1.5" fill="currentColor"/>
  </symbol>

  <!-- WATCHLIST -->
  <symbol id="icon-watchlist" viewBox="0 0 24 24">
    <rect x="5" y="3" width="14" height="18" rx="2" fill="none" stroke="currentColor" stroke-width="2"/>
    <path d="M8 8l2 2 3-3" stroke="currentColor" stroke-width="2" stroke-linecap="round"/>
    <path d="M8 13l2 2 3-3" stroke="currentColor" stroke-width="2" stroke-linecap="round"/>
  </symbol>

  <!-- NETWORK -->
  <symbol id="icon-network" viewBox="0 0 24 24">
    <circle cx="12" cy="12" r="9" fill="none" stroke="currentColor" stroke-width="2"/>
    <path d="M3 12h18" stroke="currentColor" stroke-width="2"/>
    <path d="M12 3c3 3 3 15 0 18M12 3c-3 3-3 15 0 18" stroke="currentColor" stroke-width="2"/>
  </symbol>

</svg>